<svg xmlns="http://www.w3.org/2000/svg" id="Layer_1" viewBox="16.41 13.73 67.18 65.89"><defs><style>.cls-1{stroke:#808285;}.cls-1,.cls-2{fill:none;stroke-linecap:round;stroke-linejoin:round;stroke-width:1.42px;}.cls-2{stroke:#fff;}.cls-3{fill:#009edb;}.cls-4{fill:#bcbec0;}</style></defs><polygon class="cls-4" points="55.99 17.75 59.74 26.72 64.54 16.08 55.99 17.75"/><polyline class="cls-1" points="55.99 17.75 59.74 26.72 64.54 16.08"/><polygon class="cls-4" points="55.36 17.96 48.75 27.14 50.14 18.58 55.36 17.96"/><polyline class="cls-1" points="55.36 17.96 48.75 27.14 50.14 18.58"/><polygon class="cls-4" points="64.75 16.5 73.08 24.22 71.42 15.53 64.75 16.5"/><polyline class="cls-1" points="64.75 16.5 73.08 24.22 71.42 15.53"/><path class="cls-4" d="M63.07,45.64l.03,.02v-.03s-8.73-18.39-8.73-18.39l-11.84,.27h-.02s-.03-.01-.03-.01l-.03,.04v.02s.08,0,.08,0l.1,.06,.6,.46,2.27,1.92c1.91,1.65,4.5,3.94,7.11,6.26l7.19,6.43,3.28,2.95Z"/><path class="cls-3" d="M42.48,27.54s-.01-.03,.02-.02c.03,0,.07,.03,.14,.08,.13,.09,.34,.24,.6,.46,.53,.43,1.32,1.1,2.27,1.93,1.91,1.65,4.5,3.94,7.11,6.26,5.21,4.64,10.47,9.39,10.47,9.39l-8.73-18.36-11.87,.27Z"/><polygon class="cls-3" points="63.19 45.5 66.77 25.93 53.67 27.36 63.19 45.5"/><polygon class="cls-2" points="63.19 45.5 66.77 25.93 53.67 27.36 63.19 45.5"/><polygon class="cls-3" points="42.36 27.39 50.24 18.03 56.48 16.87 53.77 27.22 42.36 27.39"/><polygon class="cls-2" points="42.36 27.39 50.24 18.03 56.48 16.87 53.77 27.22 42.36 27.39"/><polygon class="cls-3" points="64.46 15.58 71.24 15.37 78.59 22.56 66.64 25.83 64.46 15.58"/><polygon class="cls-2" points="64.46 15.58 71.24 15.37 78.59 22.56 66.64 25.83 64.46 15.58"/><polygon class="cls-3" points="56.29 16.92 64.42 15.59 66.77 25.93 53.78 27.34 56.29 16.92"/><polygon class="cls-2" points="56.29 16.92 64.42 15.59 66.77 25.93 53.78 27.34 56.29 16.92"/><polygon class="cls-3" points="63.19 45.5 78.7 22.55 66.77 25.93 63.19 45.5"/><polygon class="cls-2" points="63.19 45.5 78.7 22.55 66.77 25.93 63.19 45.5"/><path class="cls-3" d="M59.11,52.48c-7.76,7.46-10.37,17.33-5.83,22.04,4.53,4.71,14.49,2.48,22.25-4.98,7.75-7.46,10.37-17.33,5.83-22.04-4.54-4.71-14.5-2.48-22.25,4.98Zm7.53,7.82c3.41-3.28,6.57-6.17,8.93-8.2,1.18-1.01,2.16-1.8,2.86-2.32l.85-.56,.26-.11c.07-.02,.11-.01,.14,0,.05,.05,.04,.16-.01,.34-.05,.17-.16,.4-.31,.69-.32,.58-.84,1.38-1.59,2.37-1.5,1.98-3.9,4.74-7.31,8.02-3.41,3.28-7.19,6.47-10.16,8.79-1.49,1.16-2.77,2.1-3.71,2.73-.47,.32-.85,.55-1.13,.7l-.33,.15c-.08,.02-.14,.02-.16,0-.03-.02-.03-.07,0-.13l.12-.25c.12-.2,.32-.48,.59-.82,.54-.69,1.38-1.64,2.43-2.77,2.11-2.28,5.12-5.33,8.54-8.62Z"/><path class="cls-3" d="M27.33,49.82c-3.36-3.36-10.92-4.79-10.92-4.79,0,0,1.43,7.56,4.79,10.92,3.36,3.36,5.69,2.94,7.38,1.25,1.69-1.69,2.11-4.02-1.25-7.38Zm.65-17.19c-2.49-2.49-8.08-3.55-8.08-3.55,0,0,1.06,5.6,3.55,8.09,2.49,2.49,4.21,2.18,5.46,.92,1.26-1.25,1.56-2.98-.92-5.46Zm-.26,8.11c-2.83-2.83-9.19-4.03-9.19-4.03,0,0,1.2,6.36,4.03,9.19,2.83,2.83,4.79,2.48,6.21,1.05,1.42-1.43,1.78-3.38-1.05-6.21Z"/><path class="cls-3" d="M31.44,45.31c-3.36,3.36-2.94,5.69-1.25,7.38,1.7,1.7,4.02,2.11,7.38-1.25,3.36-3.36,4.79-10.92,4.79-10.92,0,0-7.56,1.43-10.92,4.79Zm-.66-17.19c-2.49,2.49-2.18,4.21-.92,5.46,1.25,1.25,2.97,1.57,5.46-.92,2.49-2.49,3.55-8.08,3.55-8.08,0,0-5.6,1.06-8.08,3.55Zm.25,8.12c-2.83,2.83-2.47,4.79-1.05,6.21,1.42,1.43,3.38,1.78,6.21-1.05s4.03-9.19,4.03-9.19c0,0-6.36,1.2-9.19,4.03Z"/><path class="cls-3" d="M30.91,23.48c0,4.17-1.7,5.36-3.81,5.36s-3.8-1.18-3.8-5.36,3.8-9.75,3.8-9.75c0,0,3.8,5.58,3.81,9.75Z"/><path class="cls-3" d="M30.55,79.51h.52c.52,.03,1.03,.06,1.53,.11,.37-.08,.76-.12,1.18-.12h.26c2.03-6.5,5.62-14.41,11.94-22.67-8.36,2.71-12.73,9.01-14.92,15.81l-.05,.17-.31-14.17h-1.52l-.46,20.89,.57-.04h1.27Z"/></svg>