<svg xmlns="http://www.w3.org/2000/svg" id="Layer_1" viewBox="0 4.63 100.06 90.74"><defs><style>.cls-1{fill:#009edb;}</style></defs><path class="cls-1" d="M99.39,23.9c-1.79-4.22-6.66-6.19-10.88-4.39l-25.49,10.83L24.08,5.57c-2.36-1.5-5.43-1.17-7.43,.78-2.25,2.21-2.41,5.78-.37,8.18l22.34,26.3c-6.73,3.14-13.09,6.61-19.01,10.49l-12.96-9.81c-1.51-1.15-3.61-1.12-5.09,.07-1.81,1.45-2.08,4.1-.6,5.88l11.07,13.39,1.93,17.27c.26,2.3,2.35,3.95,4.65,3.65,1.88-.24,3.36-1.73,3.59-3.62l1.91-15.83c6.95-1.57,13.92-3.75,20.9-6.43l3.29,34.06c.3,3.14,2.98,5.51,6.14,5.42h0c2.79-.08,5.15-2.06,5.72-4.78l9.34-44.98,25.5-10.83c4.22-1.79,6.19-6.66,4.4-10.88"/></svg>