<svg xmlns="http://www.w3.org/2000/svg" id="Layer_1" viewBox="0.63 16.74 99.28 65.93"><defs><style>.cls-1{fill:#fff;}</style></defs><path class="cls-1" d="M50.28,20.04c.92,0,1.68,.72,1.68,1.66s-.76,1.66-1.68,1.66-1.68-.75-1.68-1.66,.76-1.66,1.68-1.66M14.69,27.23c0-1.92,1.59-3.49,3.52-3.49h22.84l1.33,2.07c.41,.63,1.11,1,1.87,1h12.05c.76,0,1.46-.38,1.87-1l1.33-2.07h22.81c1.97,0,3.55,1.57,3.55,3.49v40.96h7.07V27.23c0-5.78-4.76-10.49-10.63-10.49H18.21c-5.84,0-10.59,4.71-10.59,10.49v40.96h7.07V27.23Zm83.01,44.07H62.27l-1.21,3.33c-.29,.88-1.14,1.48-2.06,1.48h-17.45c-.92,0-1.78-.6-2.09-1.48l-1.17-3.33H2.85c-1.24,0-2.22,.97-2.22,2.17v3.29c0,3.23,2.66,5.91,5.96,5.91H93.95c3.27,0,5.96-2.67,5.96-5.91v-3.29c0-1.19-.98-2.17-2.22-2.17"/><path class="cls-1" d="M28.56,33.27c.97-.96,.97-2.51,0-3.47-.97-.96-2.53-.96-3.5,0l-4.3,4.26c-.97,.96-.97,2.51,0,3.47,.48,.48,1.12,.72,1.75,.72s1.27-.24,1.75-.72l4.3-4.26Z"/><path class="cls-1" d="M35.97,32.43l-12.56,12.44c-.97,.96-.97,2.51,0,3.47,.48,.48,1.12,.72,1.75,.72s1.27-.24,1.75-.72l12.56-12.44c.97-.96,.97-2.51,0-3.47-.97-.96-2.53-.96-3.5,0"/></svg>