<svg xmlns="http://www.w3.org/2000/svg" id="Layer_1" viewBox="0 0 204 35.51"><defs><style>.cls-1{fill:#fff;}.cls-2{fill:#0078b8;}</style></defs><rect class="cls-2" width="204" height="35.51" rx="9" ry="9"/><path class="cls-1" d="M175.44,14.13h-3.02c-.42,0-.75,.34-.75,.76v8.3h4.53V14.88c0-.42-.34-.76-.75-.76"/><path class="cls-1" d="M163.36,16.39c0-.42-.34-.75-.76-.75h-3.02c-.42,0-.75,.34-.75,.75v6.79h4.53v-6.79Zm20.95,8.68h-27.17c-.63,0-1.13,.51-1.13,1.13s.51,1.13,1.13,1.13h27.17c.63,0,1.13-.51,1.13-1.13s-.51-1.13-1.13-1.13m-14.53-13.97c0-.42-.34-.75-.75-.75h-3.02c-.42,0-.75,.34-.75,.75v12.08h4.53V11.11Zm12.83-3.02c0-.42-.34-.75-.76-.75h-3.02c-.42,0-.76,.34-.76,.75v15.1h4.53V8.09Z"/><path class="cls-1" d="M134.71,9.45l-3.39,.49c-.55,.08-.77,.75-.38,1.14l.57,.57-3.6,3.12-3.03-3.03c-.44-.44-1.16-.44-1.6,0l-.79,.78,4.56,4.59c.42,.42,1.09,.44,1.54,.05l4.52-3.92,.73,.73c.39,.39,1.06,.17,1.14-.38l.49-3.39c.06-.44-.32-.82-.76-.76m-20.87,11.72c-.44,.44-.44,1.16,0,1.6,.22,.22,.51,.33,.8,.33s.58-.11,.8-.33l4.38-4.38-1.6-1.6-4.38,4.38Z"/><path class="cls-1" d="M137.39,26.02h-26.04v-5.21s.03-.02,.04-.03l6.75-6.75,9.77,9.77c.22,.22,.51,.33,.8,.33,.26,0,.52-.09,.73-.27l4.91-4.15c.48-.4,.54-1.12,.13-1.59-.4-.48-1.12-.54-1.6-.13l-4.11,3.48-9.83-9.83c-.44-.44-1.16-.44-1.6,0l-5.99,5.99V7.53c0-.62-.51-1.13-1.13-1.13s-1.13,.51-1.13,1.13V27.15c0,.63,.51,1.13,1.13,1.13h27.18c.62,0,1.13-.51,1.13-1.13s-.51-1.13-1.13-1.13"/><path class="cls-1" d="M88.28,9.96c-.13-.19-.41-.21-.58-.05l-2.5,2.5-1.33,1.3c-.12,.12-.14,.3-.06,.45,.64,1.17,1,2.51,1,3.93,0,2.11-.79,4.03-2.08,5.49-.13,.15-.13,.37,0,.51l3.74,3.74c.15,.15,.4,.15,.55,0,2.37-2.56,3.82-5.98,3.82-9.74,0-3.03-.96-5.82-2.56-8.13m-7,15.27c-.12-.13-.31-.15-.46-.06-1.36,.83-2.98,1.29-4.71,1.21-4.08-.19-7.51-3.46-7.88-7.53-.37-4.16,2.34-7.75,6.1-8.77,.16-.04,.28-.19,.28-.36V5.09c0-.23-.21-.42-.44-.38-7.72,1.33-13.2,9.17-10.6,17.66,1.15,3.76,5.09,7.61,8.86,8.71,4.49,1.31,8.78,.37,12.01-1.96,.18-.13,.2-.4,.05-.56-.72-.75-2.59-2.67-3.2-3.33"/><path class="cls-1" d="M87.08,7.33c-2.64-2.59-6.22-4.23-10.19-4.33-.21,0-.39,.17-.39,.38v7.55c0,.2,.16,.36,.36,.37,1.67,.09,3.18,.79,4.32,1.87,.15,.14,.38,.15,.53,0l2.18-2.12,3.19-3.19c.15-.15,.15-.39,0-.54"/><path class="cls-1" d="M23.16,16.74c1.19,0,2.15-.97,2.15-2.17s-.96-2.17-2.15-2.17-2.15,.97-2.15,2.17,.96,2.17,2.15,2.17m19.69,9.41H18.15V8.42c0-.6-.48-1.08-1.07-1.08s-1.07,.49-1.07,1.08V27.24c0,.6,.48,1.09,1.07,1.09h25.78c.59,0,1.07-.49,1.07-1.09s-.48-1.09-1.07-1.09m-20.05-2.53c1.19,0,2.15-.97,2.15-2.17s-.96-2.17-2.15-2.17-2.15,.97-2.15,2.17,.96,2.17,2.15,2.17m6.8-3.98c1.19,0,2.15-.97,2.15-2.17s-.96-2.17-2.15-2.17-2.15,.97-2.15,2.17,.96,2.17,2.15,2.17m7.16-1.45c1.19,0,2.15-.97,2.15-2.17s-.96-2.17-2.15-2.17-2.15,.97-2.15,2.17,.96,2.17,2.15,2.17"/><path class="cls-1" d="M30.32,8.06c-1.19,0-2.15,.97-2.15,2.17s.96,2.17,2.15,2.17,2.15-.97,2.15-2.17-.96-2.17-2.15-2.17"/></svg>