<svg xmlns:inkscape="http://www.inkscape.org/namespaces/inkscape" xmlns:sodipodi="http://sodipodi.sourceforge.net/DTD/sodipodi-0.dtd" xmlns="http://www.w3.org/2000/svg" xmlns:svg="http://www.w3.org/2000/svg" version="1.1" id="svg2" xml:space="preserve" sodipodi:docname="UNCTAD logo Bluenew SP.eps" viewBox="0 0.01 123.88 149.75"><defs id="defs6"/><sodipodi:namedview id="namedview4" pagecolor="#ffffff" bordercolor="#666666" borderopacity="1.0" inkscape:pageshadow="2" inkscape:pageopacity="0.0" inkscape:pagecheckerboard="0"/><g id="g8" inkscape:groupmode="layer" inkscape:label="ink_ext_XXXXXX" transform="matrix(1.3333333,0,0,-1.3333333,0,149.76)"><g id="g10" transform="scale(0.1)"><path d="m 100.066,127.273 h 16.579 V 54.9492 C 116.645,42.3906 115.219,32.3984 112.359,25 109.504,17.6016 104.379,11.6016 96.9453,6.96094 89.5195,2.30078 79.7891,0 67.7227,0 56.0078,0 46.3945,2.01172 38.9648,6.05859 31.5078,10.082 26.1758,15.9414 22.9961,23.6016 19.793,31.2617 18.2148,41.6992 18.2148,54.9492 V 127.273 H 34.7695 V 55.0391 c 0,-10.8672 1.0196,-18.8789 3.0274,-24.0078 2.0117,-5.1524 5.5078,-9.1211 10.4023,-11.9219 4.9219,-2.7891 10.9571,-4.1875 18.0664,-4.1875 12.1797,0 20.8633,2.7578 26.0508,8.2969 5.1563,5.5117 7.7496,16.1093 7.7496,31.8203 v 72.2339 0" style="fill:#399fdf;fill-opacity:1;fill-rule:nonzero;stroke:none" id="path12"/><path d="M 186.781,2.12891 V 127.273 h 16.985 L 269.5,29.0195 v 98.2535 h 15.879 V 2.12891 H 268.395 L 202.66,100.469 V 2.12891 h -15.879 v 0" style="fill:#399fdf;fill-opacity:1;fill-rule:nonzero;stroke:none" id="path14"/><path d="m 445.227,46 16.578,-4.1914 C 458.34,28.2305 452.074,17.8594 443.07,10.6914 434.035,3.55078 423.023,0 409.973,0 396.48,0 385.523,2.73047 377.078,8.21094 368.625,13.7188 362.184,21.6797 357.785,32.0781 c -4.398,10.4336 -6.613,21.6211 -6.613,33.5625 0,13.0313 2.473,24.3985 7.461,34.0899 4.984,9.7105 12.062,17.0785 21.265,22.1215 9.18,5.043 19.293,7.55 30.332,7.55 12.532,0 23.047,-3.183 31.59,-9.562 8.539,-6.379 14.481,-15.32 17.832,-26.8908 l -16.289,-3.8476 c -2.91,9.1172 -7.109,15.7264 -12.644,19.8984 -5.504,4.172 -12.446,6.238 -20.832,6.238 -9.621,0 -17.633,-2.297 -24.098,-6.898 -6.469,-4.641 -11.016,-10.8205 -13.609,-18.6017 -2.621,-7.75 -3.934,-15.7695 -3.934,-24.0078 0,-10.6602 1.547,-19.9297 4.633,-27.8789 3.113,-7.9297 7.926,-13.8828 14.48,-17.8008 6.555,-3.9414 13.641,-5.8906 21.274,-5.8906 9.265,0 17.101,2.6796 23.543,8.0195 6.433,5.3516 10.781,13.3086 13.051,23.8203 v 0" style="fill:#399fdf;fill-opacity:1;fill-rule:nonzero;stroke:none" id="path16"/><path d="M 556.805,2.12891 V 112.5 h -41.231 v 14.773 h 99.18 V 112.5 H 573.348 V 2.12891 h -16.543 v 0" style="fill:#399fdf;fill-opacity:1;fill-rule:nonzero;stroke:none" id="path18"/><path d="m 683.855,53.5195 h 42.461 L 713.23,88.1719 c -3.964,10.5195 -6.933,19.1681 -8.847,25.9571 -1.602,-8.039 -3.848,-16.0001 -6.758,-23.9181 L 683.855,53.5195 Z M 647.762,2.12891 695.848,127.273 H 713.68 L 764.891,2.12891 H 746.023 L 731.414,40.0391 H 679.09 L 665.359,2.12891 h -17.597 v 0" style="fill:#399fdf;fill-opacity:1;fill-rule:nonzero;stroke:none" id="path20"/><path d="m 837.41,16.8984 h 26.719 c 8.262,0 14.746,0.75 19.434,2.3008 4.707,1.5391 8.437,3.6992 11.23,6.5 3.926,3.9024 6.992,9.1992 9.18,15.8203 2.187,6.6407 3.281,14.6602 3.281,24.1211 0,13.0899 -2.149,23.1407 -6.426,30.168 -4.316,7.0434 -9.531,11.7424 -15.683,14.1324 -4.434,1.707 -11.602,2.559 -21.426,2.559 H 837.41 V 16.8984 Z M 820.867,2.12891 V 127.273 h 43.086 c 9.746,0 17.168,-0.613 22.305,-1.804 7.168,-1.633 13.281,-4.641 18.359,-8.949 6.582,-5.59 11.524,-12.7 14.785,-21.3911 3.301,-8.6797 4.942,-18.5898 4.942,-29.75 0,-9.4883 -1.114,-17.918 -3.36,-25.25 -2.207,-7.3476 -5.039,-13.4375 -8.535,-18.25 -3.476,-4.8086 -7.265,-8.5898 -11.386,-11.3398 C 896.941,7.78125 891.961,5.67969 886.141,4.25 880.281,2.82031 873.582,2.12891 866.023,2.12891 h -45.156 v 0" style="fill:#399fdf;fill-opacity:1;fill-rule:nonzero;stroke:none" id="path22"/><path d="M 14.7695,160.223 H 924.051 v -8.45 H 14.7695 v 8.45 0" style="fill:#399fdf;fill-opacity:1;fill-rule:evenodd;stroke:none" id="path24"/><path d="m 13.1133,190.73 v 73.528 h 9.6914 l 37.5156,-57.735 v 57.735 h 9.0625 V 190.73 H 59.6836 L 22.1719,248.504 V 190.73 h -9.0586 v 0" style="fill:#399fdf;fill-opacity:1;fill-rule:nonzero;stroke:none" id="path26"/><path d="m 98.0156,220.926 h 24.2224 l -7.465,20.351 c -2.257,6.184 -3.957,11.27 -5.054,15.254 -0.914,-4.726 -2.192,-9.394 -3.856,-14.051 L 98.0156,220.926 Z M 77.4141,190.73 104.852,264.258 h 10.175 L 144.258,190.73 H 133.48 l -8.328,22.266 H 95.2852 L 87.4531,190.73 h -10.039 v 0" style="fill:#399fdf;fill-opacity:1;fill-rule:nonzero;stroke:none" id="path28"/><path d="m 202.754,216.504 9.461,-2.461 c -1.985,-7.98 -5.559,-14.074 -10.695,-18.281 -5.157,-4.199 -11.438,-6.289 -18.887,-6.289 -7.699,0 -13.953,1.609 -18.774,4.832 -4.824,3.234 -8.496,7.91 -11.004,14.015 -2.515,6.133 -3.781,12.703 -3.781,19.727 0,7.656 1.41,14.324 4.258,20.027 2.848,5.703 6.887,10.031 12.141,13 5.238,2.957 11.007,4.434 17.308,4.434 7.149,0 13.153,-1.867 18.028,-5.617 4.867,-3.75 8.261,-9.004 10.175,-15.801 l -9.296,-2.266 c -1.665,5.364 -4.059,9.25 -7.219,11.692 -3.137,2.449 -7.098,3.672 -11.887,3.672 -5.488,0 -10.059,-1.36 -13.758,-4.063 -3.683,-2.727 -6.277,-6.348 -7.761,-10.918 -1.497,-4.551 -2.243,-9.269 -2.243,-14.113 0,-6.258 0.879,-11.707 2.645,-16.375 1.781,-4.66 4.523,-8.156 8.265,-10.461 3.739,-2.313 7.782,-3.465 12.137,-3.465 5.289,0 9.762,1.582 13.434,4.715 3.676,3.144 6.156,7.824 7.453,13.996 v 0" style="fill:#399fdf;fill-opacity:1;fill-rule:nonzero;stroke:none" id="path30"/><path d="m 225.469,190.73 v 73.528 h 9.445 V 190.73 h -9.445 v 0" style="fill:#399fdf;fill-opacity:1;fill-rule:nonzero;stroke:none" id="path32"/><path d="m 258.441,226.387 c 0,-8.867 2.313,-15.832 6.938,-20.938 4.637,-5.097 10.437,-7.656 17.422,-7.656 7.121,0 12.972,2.566 17.562,7.723 4.586,5.156 6.899,12.461 6.899,21.933 0,5.969 -0.996,11.192 -2.961,15.664 -1.957,4.465 -4.84,7.93 -8.61,10.391 -3.789,2.453 -8.031,3.684 -12.738,3.684 -6.699,0 -12.453,-2.364 -17.277,-7.11 -4.824,-4.719 -7.235,-12.637 -7.235,-23.691 z m -9.742,0.156 c 0,12.207 3.172,21.758 9.539,28.652 6.375,6.903 14.586,10.36 24.66,10.36 6.59,0 12.543,-1.629 17.829,-4.864 5.285,-3.25 9.328,-7.773 12.101,-13.574 2.781,-5.789 4.16,-12.383 4.16,-19.726 0,-7.461 -1.441,-14.129 -4.367,-20.008 -2.93,-5.891 -7.07,-10.344 -12.43,-13.371 -5.363,-3.028 -11.136,-4.539 -17.336,-4.539 -6.738,0 -12.742,1.668 -18.027,5.019 -5.305,3.34 -9.312,7.91 -12.043,13.699 -2.722,5.762 -4.086,11.895 -4.086,18.352 v 0" style="fill:#399fdf;fill-opacity:1;fill-rule:nonzero;stroke:none" id="path34"/><path d="m 329.078,190.73 v 73.528 h 9.695 l 37.512,-57.735 v 57.735 h 9.063 V 190.73 h -9.696 l -37.515,57.774 V 190.73 h -9.059 v 0" style="fill:#399fdf;fill-opacity:1;fill-rule:nonzero;stroke:none" id="path36"/><path d="m 401.43,190.73 v 73.528 h 51.629 v -8.684 h -42.188 v -22.508 h 39.508 v -8.632 h -39.508 v -25.032 h 43.848 V 190.73 H 401.43 v 0" style="fill:#399fdf;fill-opacity:1;fill-rule:nonzero;stroke:none" id="path38"/><path d="m 464.563,214.355 8.921,0.801 c 0.411,-3.683 1.387,-6.691 2.93,-9.054 1.563,-2.364 3.945,-4.266 7.188,-5.723 3.242,-1.453 6.894,-2.176 10.957,-2.176 3.613,0 6.796,0.555 9.55,1.649 2.754,1.113 4.825,2.617 6.172,4.531 1.348,1.933 2.032,4.023 2.032,6.308 0,2.305 -0.665,4.309 -1.973,6.036 -1.289,1.73 -3.438,3.175 -6.426,4.336 -1.914,0.773 -6.152,1.964 -12.715,3.593 -6.543,1.633 -11.152,3.145 -13.789,4.59 -3.398,1.828 -5.945,4.121 -7.621,6.848 -1.668,2.722 -2.496,5.769 -2.496,9.16 0,3.699 1.012,7.168 3.055,10.391 2.047,3.23 5.031,5.683 8.976,7.363 3.926,1.66 8.281,2.5 13.086,2.5 5.313,0 9.961,-0.879 14.024,-2.637 4.043,-1.75 7.148,-4.336 9.336,-7.746 2.148,-3.406 3.339,-7.273 3.496,-11.59 l -9.063,-0.695 c -0.488,4.64 -2.129,8.164 -4.941,10.527 -2.813,2.375 -6.953,3.555 -12.442,3.555 -5.722,0 -9.882,-1.074 -12.5,-3.231 -2.617,-2.16 -3.925,-4.757 -3.925,-7.785 0,-2.656 0.918,-4.832 2.773,-6.523 1.816,-1.719 6.562,-3.457 14.238,-5.242 7.696,-1.797 12.969,-3.352 15.821,-4.688 4.16,-1.992 7.226,-4.484 9.218,-7.5 1.973,-3.027 2.95,-6.523 2.95,-10.461 0,-3.914 -1.075,-7.605 -3.262,-11.062 -2.168,-3.457 -5.293,-6.145 -9.375,-8.078 -4.063,-1.914 -8.653,-2.879 -13.75,-2.879 -6.465,0 -11.875,0.965 -16.25,2.918 -4.375,1.933 -7.789,4.843 -10.289,8.742 -2.477,3.887 -3.789,8.308 -3.906,13.222 v 0" style="fill:#399fdf;fill-opacity:1;fill-rule:nonzero;stroke:none" id="path40"/><path d="m 608.895,264.258 h 9.472 v -42.492 c 0,-7.383 -0.82,-13.25 -2.461,-17.598 -1.621,-4.355 -4.551,-7.879 -8.789,-10.594 -4.238,-2.746 -9.785,-4.101 -16.679,-4.101 -6.68,0 -12.168,1.179 -16.407,3.562 -4.258,2.363 -7.304,5.813 -9.121,10.305 -1.816,4.5 -2.715,10.633 -2.715,18.426 v 42.492 h 9.434 v -42.442 c 0,-6.386 0.586,-11.093 1.738,-14.113 1.153,-3.027 3.145,-5.351 5.938,-6.992 2.812,-1.648 6.25,-2.469 10.312,-2.469 6.934,0 11.895,1.629 14.863,4.883 2.93,3.23 4.415,9.461 4.415,18.691 v 42.442 0" style="fill:#399fdf;fill-opacity:1;fill-rule:nonzero;stroke:none" id="path42"/><path d="m 633.992,190.73 v 73.528 h 9.688 l 37.519,-57.735 v 57.735 h 9.063 V 190.73 h -9.707 l -37.5,57.774 V 190.73 h -9.063 v 0" style="fill:#399fdf;fill-opacity:1;fill-rule:nonzero;stroke:none" id="path44"/><path d="m 707.742,190.73 v 73.528 h 9.453 V 190.73 h -9.453 v 0" style="fill:#399fdf;fill-opacity:1;fill-rule:nonzero;stroke:none" id="path46"/><path d="m 743.309,199.402 h 15.234 c 4.707,0 8.418,0.45 11.094,1.36 2.676,0.906 4.804,2.168 6.406,3.816 2.246,2.297 3.984,5.41 5.234,9.297 1.25,3.898 1.875,8.605 1.875,14.172 0,7.683 -1.23,13.594 -3.672,17.715 -2.46,4.148 -5.429,6.902 -8.945,8.308 -2.519,1.008 -6.621,1.504 -12.226,1.504 h -15 v -56.172 z m -9.454,-8.672 v 73.528 h 24.59 c 5.567,0 9.805,-0.363 12.715,-1.067 4.102,-0.957 7.598,-2.722 10.488,-5.253 3.75,-3.29 6.582,-7.469 8.438,-12.567 1.894,-5.098 2.812,-10.918 2.812,-17.48 0,-5.578 -0.625,-10.528 -1.914,-14.844 -1.25,-4.309 -2.871,-7.891 -4.863,-10.715 -1.973,-2.82 -4.141,-5.047 -6.504,-6.66 -2.344,-1.621 -5.195,-2.859 -8.515,-3.692 -3.34,-0.839 -7.168,-1.25 -11.465,-1.25 h -25.782 v 0" style="fill:#399fdf;fill-opacity:1;fill-rule:nonzero;stroke:none" id="path48"/><path d="m 818.66,220.926 h 24.219 l -7.461,20.351 c -2.266,6.184 -3.965,11.27 -5.059,15.254 -0.918,-4.726 -2.187,-9.394 -3.847,-14.051 l -7.852,-21.554 z m -20.605,-30.196 27.441,73.528 h 10.176 L 864.91,190.73 h -10.781 l -8.34,22.266 h -29.863 l -7.832,-22.266 h -10.039 v 0" style="fill:#399fdf;fill-opacity:1;fill-rule:nonzero;stroke:none" id="path50"/><path d="m 869.246,214.355 8.906,0.801 c 0.411,-3.683 1.407,-6.691 2.95,-9.054 1.543,-2.364 3.945,-4.266 7.187,-5.723 3.242,-1.453 6.895,-2.176 10.957,-2.176 3.594,0 6.777,0.555 9.531,1.649 2.774,1.113 4.825,2.617 6.172,4.531 1.348,1.933 2.031,4.023 2.031,6.308 0,2.305 -0.644,4.309 -1.953,6.036 -1.308,1.73 -3.457,3.175 -6.425,4.336 -1.934,0.773 -6.153,1.964 -12.715,3.593 -6.563,1.633 -11.172,3.145 -13.789,4.59 -3.418,1.828 -5.957,4.121 -7.637,6.848 -1.66,2.722 -2.5,5.769 -2.5,9.16 0,3.699 1.016,7.168 3.066,10.391 2.051,3.23 5.039,5.683 8.965,7.363 3.946,1.66 8.301,2.5 13.106,2.5 5.293,0 9.961,-0.879 14.023,-2.637 4.024,-1.75 7.149,-4.336 9.317,-7.746 2.167,-3.406 3.339,-7.273 3.515,-11.59 l -9.062,-0.695 c -0.508,4.64 -2.149,8.164 -4.961,10.527 -2.813,2.375 -6.953,3.555 -12.442,3.555 -5.722,0 -9.863,-1.074 -12.5,-3.231 -2.617,-2.16 -3.925,-4.757 -3.925,-7.785 0,-2.656 0.937,-4.832 2.773,-6.523 1.836,-1.719 6.582,-3.457 14.258,-5.242 7.676,-1.797 12.949,-3.352 15.801,-4.688 4.16,-1.992 7.246,-4.484 9.218,-7.5 1.973,-3.027 2.969,-6.523 2.969,-10.461 0,-3.914 -1.094,-7.605 -3.262,-11.062 -2.187,-3.457 -5.312,-6.145 -9.375,-8.078 -4.082,-1.914 -8.672,-2.879 -13.75,-2.879 -6.484,0 -11.894,0.965 -16.25,2.918 -4.375,1.933 -7.793,4.843 -10.293,8.742 -2.48,3.887 -3.789,8.308 -3.906,13.222 v 0" style="fill:#399fdf;fill-opacity:1;fill-rule:nonzero;stroke:none" id="path52"/><path d="m 154.777,806.309 h 49.547 c 1.742,66.578 28.614,127.015 71.438,172.152 l -35.176,35.179 C 186.742,957.395 156.473,884.262 154.777,806.309 Z m 95.594,217.121 35.176,-35.18 c 45.148,42.83 105.586,69.7 172.168,71.45 v 49.53 c -77.957,-1.68 -151.094,-31.95 -207.344,-85.8 z M 464.633,855.836 c -5.809,0 -11.442,-0.867 -16.848,-2.555 -0.715,-0.777 -1.254,-1.426 -0.844,-2.011 1.364,-1.989 5.516,2.183 6.067,-1.657 0.414,-2.789 -4.594,-0.734 -4.141,-2.789 0.367,-1.64 3.84,-0.961 3.926,-3.222 0.074,-2.075 -2.098,-6.153 -3.773,-7.223 -2.227,-1.426 -14.102,-2.996 -15.239,-5.75 -0.996,-2.414 -2.031,-4.586 -3.89,-6.566 -2.024,-2.129 -11.551,-7.786 -11.575,-9.258 -0.05,-3.469 4.575,0.953 5.864,2.316 2.043,2.16 4.855,2.152 7.914,3.902 4.219,2.403 5.84,-6 1.32,-6.304 -2.82,-0.196 -5.199,-8.121 -9.625,-6.594 -1.113,0.387 -4.262,2.336 -4.941,0.324 -0.723,-2.14 6.574,-2.476 8.867,-3.992 5.828,-3.848 -4.422,-3.578 -6.067,-4.629 -1.621,-1.035 -0.82,-3.273 1.395,-2.367 2.141,0.887 5.051,3.125 6.383,-0.508 1.793,-4.922 -8.102,-22.871 -10.977,-20.98 -1.57,1.027 -3.191,-0.43 -4.664,-1.059 1.973,-4.074 4.445,-7.859 7.289,-11.332 1.949,3.211 5.02,7.754 6.317,7.785 1.839,0.055 1.222,1.504 1.914,2.801 0.855,1.566 3.039,-0.074 3.191,2.066 0.149,2.129 5.602,5.192 6.227,8.325 0.324,1.687 -1.688,3.367 -0.852,4.757 1.016,1.7 1.75,1.961 2.844,2.329 1.09,0.378 3.676,-2.196 4.465,-1.082 0.789,1.113 4.64,0.257 7.582,-1.602 1.34,-0.856 3.945,0.129 5.547,-2.141 2.214,-3.125 -0.11,-3.394 0.289,-4.086 0.39,-0.691 1.351,0.387 1.937,-0.183 1.242,-1.211 -5.773,-5.321 -4.972,-7.563 0.789,-2.226 -5.95,-13.258 -7.797,-15.008 -2.543,-2.312 -6.739,0.27 -8.395,-0.207 -1.781,-0.507 -2.129,-2.031 -4.875,-1.359 -2.121,0.508 -4.66,-0.348 -7.008,-1.461 9.93,-8.715 22.926,-14.027 37.145,-14.027 3.062,0 6.055,0.285 8.976,0.758 1.829,2.347 2.582,5.234 2.973,8.187 0.227,1.602 -0.055,3.676 0.789,5.102 0.727,1.215 5.332,6.879 7.172,6.804 1.609,-0.066 2.715,-1.48 5.035,-0.757 4.512,1.418 7.301,0.214 7.344,-1.731 0.066,-2.715 -5.676,-1.937 -5.438,-3.461 0.153,-1.07 4.317,-2.68 5.676,-1.125 2.555,2.879 2.176,6.652 1.516,7.473 -1.809,2.281 -1.699,3.222 0.898,2.336 1.598,-0.551 1.586,5.765 3.114,8.187 2.074,3.254 -3.84,0.973 -6.305,0.625 -2.324,-0.324 -4.25,4.641 -4.305,6.379 -0.043,1.258 4.414,-4.43 6.66,-4.551 2.543,-0.129 5.547,2.825 5.582,4.985 0.055,2.164 -4.843,2.457 -5.59,5.082 -0.41,1.441 3.977,0.011 3.641,1.429 -0.277,1.243 0.445,4.239 -2.32,5.426 -2.762,1.18 -5.289,10.016 -7.496,10.621 -1.957,0.532 -3.59,-2.121 -4.789,-3.093 -1.192,-0.961 -3.094,0.703 -2.098,1.625 1.414,1.316 4.703,4.152 5.383,6.378 1.148,3.743 5.961,-0.195 5.105,5.028 -0.922,5.656 -5.742,4.562 -3.504,7.289 2.293,2.769 0.582,7.277 -4.078,6.379 -2.152,-0.41 -4.41,3.094 -4.636,6.121 -0.141,1.668 -4.922,1.406 -4.739,3.168 0.379,3.601 -5.015,3.98 -8.316,3.73 -3.297,-0.234 -9.68,4.848 -10.391,6.09 -0.703,1.254 -5.289,-1.101 -3.773,3.742 1.492,4.77 6.011,-0.867 7.914,0.508 2.055,1.469 1.418,2.973 1.082,4.133 -0.367,0.008 -0.727,0.043 -1.082,0.043 z m 6.922,13.492 c 4.715,-0.465 9.351,-1.414 13.875,-2.808 1.175,2.886 4.129,4.324 6.55,5.968 2.868,1.946 4.942,4.141 4.532,-1.148 -0.379,-3.719 -1.926,-5.969 -3.848,-7.485 4.856,-2.117 9.473,-4.757 13.766,-7.933 0.937,-0.703 1.859,-1.442 2.765,-2.188 l 4.758,4.758 c -0.043,0.164 -0.086,0.328 -0.086,0.531 0.086,2.704 4.004,5.926 8.524,7.907 l 15.453,15.453 c -0.348,0.074 -0.727,0.14 -1.168,0.191 -2.078,0.262 -5.031,-4.043 -7.051,-2.851 -2.281,1.328 6.824,9.351 10.891,7.804 0.55,-0.203 1.156,-0.441 1.781,-0.691 l 1.969,1.969 c -19.575,17.453 -44.875,28.59 -72.711,30.191 z m 0,63.531 c 31.64,-1.621 60.418,-14.304 82.519,-34.246 l 35.047,35.035 c -31.133,28.883 -72.269,47.094 -117.566,48.782 z m 0,63.422 c 42.054,-1.457 80.765,-16.187 112.16,-40.086 -3.547,4.696 -7.137,9.551 -8.805,11.332 -3.035,3.235 -14.414,7.215 -13.265,9.063 1.132,1.859 11.257,-6.215 13.031,-4.801 2.129,1.711 -5.082,10.988 -4.543,11.344 0.746,0.488 9.289,-7.766 13.484,-15.16 1.75,-2.606 6.403,-1.285 10.024,-3.805 3.191,-2.242 3.406,-5.82 6.089,-8.121 0.43,-0.379 6.11,-3.656 2.813,-3.277 -0.953,0.105 -2.414,2.128 -3.508,1.101 -0.68,-0.648 0.414,-4.133 2.371,-7.937 l 16.457,16.468 c -2.39,4.848 -7.101,11.235 -10.39,12.047 -3.395,0.832 -5.485,-2.023 -7.821,-3.957 -2.336,-1.937 -5.254,-2.586 -5.621,-1.289 -0.41,1.473 0.477,5.074 0.305,6.586 -0.238,1.895 -1.723,3.387 -2.219,5.215 -1.179,4.305 0.574,9.101 -2.043,11.961 -2.879,3.133 -4.804,7.885 -7.051,11.485 -2.457,3.93 -6.878,9.99 -7.136,15.14 -32.063,16.21 -67.5,25.26 -104.332,26.26 z m 0,63.419 c 41.406,-1.07 81.156,-11.76 116.711,-30.97 3.32,0.52 6.597,0.93 8.793,1.96 4.414,2.06 13.086,-2.62 17.269,-5.05 3.817,-2.2 6.781,-5.47 10.977,-7.83 4.293,-2.41 11.191,-9.33 12.707,-16.31 1.523,-6.969 5.945,-6.492 3.742,-9.316 -1.106,-1.407 0.582,-1.946 2.691,-3.2 l 34.453,34.446 c -56.253,53.85 -129.386,84.12 -207.343,85.8 z m 217.117,-46.06 -36.699,-36.702 c 3.359,-5.864 9.675,-13.247 18.586,-22.321 3.656,-3.73 7.539,-7.387 10.793,-10.683 3.125,-3.149 23.14,-28.051 19.269,-31.664 -0.281,-0.27 -0.582,-0.52 -0.887,-0.766 15.575,-32.703 24.223,-68.742 25.196,-105.195 h 49.55 c -1.687,77.953 -31.957,151.086 -85.808,207.331 z M 774.48,792.465 h -49.539 c -1.75,-66.578 -28.613,-127.02 -71.445,-172.164 l 35.176,-35.176 c 53.851,56.25 84.121,129.383 85.808,207.34 z M 538.328,692.328 c 0.086,-2.43 -2.367,-0.484 -3.113,-1.316 -0.746,-0.813 19.484,-10.285 22.664,-10.824 2.176,-0.368 6.316,-1.915 13.637,-0.458 4.91,0.977 6.273,-1.285 8.566,-1.199 3.266,0.117 5.383,4.532 7.277,7.246 5.016,7.157 4.067,8.121 5.395,9.235 1.699,1.426 6.629,-9.528 6.004,-16.469 -0.11,-1.105 -0.238,-2.133 -0.391,-3.113 l 0.531,-0.532 c 28.883,31.122 47.09,72.27 48.782,117.567 h -37.676 c 1.297,-2.141 3.547,-4.91 5.914,-9.797 1.902,-3.914 3.027,-10.133 6.227,-10.434 5.16,-0.488 10.468,-4.757 10.621,-8.347 0.304,-7.508 -22.981,-9.324 -26.039,-8.364 -2.575,0.813 -4.282,0.985 -4.457,-3.046 -0.196,-4.575 -8.411,-4.61 -11.645,-7.344 -3.633,-3.07 -4.035,-8.684 -6.469,-12.598 -1.457,-2.347 -10.054,-10.469 -12.402,-12.109 -5.602,-3.918 -16.145,-4.11 -11.32,-6.696 3.437,-1.839 11.246,-2.488 10.261,-0.671 -1.125,2.089 0.594,2.285 1.914,0.574 1.016,-1.285 4.684,1.246 4.606,3.601 -0.074,2.227 -0.563,5.86 1.504,6 3.351,0.219 6.879,3.938 8.543,3.59 1.89,-0.386 4.457,-4.594 2.531,-17.406 -1.906,-12.828 -8.023,-21.75 -10.469,-25.773 -2.636,-4.301 -5.277,-1.016 -8.812,0.8 -4.5,2.317 -11.282,2.219 -16.016,3.766 -2.508,0.809 -16.242,6.012 -16.168,4.117 z m 18.059,183.965 c -1.664,0.023 -3.039,0.348 -4.246,0.812 l -11.582,-11.574 c 2.214,-0.593 4.668,0.231 7.437,-1.004 3.082,-1.351 1.578,8.61 6.293,7.7 4.813,-0.918 6.047,-4.012 2.066,-5.516 -3.187,-1.035 0.79,-3.695 -3.07,-5.008 -3.515,-1.199 2.856,-4.301 2.801,-5.687 -0.066,-1.914 -4.801,-2.625 2.312,-4.821 7.106,-2.195 0.024,5.981 1.106,7.125 1.316,1.395 5.113,-2.207 6.164,-0.617 0.387,0.586 1.09,1.602 1.953,2.77 -3.316,5.582 -7.082,10.879 -11.234,15.82 z m 42.511,47.57 -35.039,-35.035 c 6.024,-6.683 11.375,-13.984 15.973,-21.781 4.121,-0.637 9.742,-2.293 13.367,-6.953 2.563,-3.309 9.957,-9.926 8.824,-12.891 -0.695,-1.816 0.852,-4.066 2.54,-5.254 2.585,-1.804 4.414,-1.761 5.828,0.043 2.586,3.297 2.953,7.754 6.382,10.567 4.196,3.457 12.79,-6.532 12.782,-8.36 -0.012,-1.828 -2.231,-2.261 -2.867,-5.504 -0.864,-4.433 -4.672,-9.722 -0.344,-11.203 6.304,-2.152 7.101,0.324 10.133,4.758 1.39,2.043 1.089,5.34 2.593,7.363 0.953,1.278 2.368,1.817 3.633,2.66 -2.367,9.829 -5.504,19.368 -9.387,28.504 -0.929,0.911 -2.011,1.657 -3.363,2.098 -2.258,0.746 -0.984,2.77 -3.945,3.699 -3.399,1.071 -4.715,2.043 -5.028,8.004 -0.25,4.801 4.055,-1.578 5.125,-0.75 0.227,0.188 0.43,0.469 0.637,0.793 -7.558,14.305 -16.933,27.488 -27.844,39.242 z m 12.641,-116.929 c -0.078,-0.204 -0.207,-0.422 -0.359,-0.625 h 36.5 c -0.196,5.265 -0.641,10.476 -1.27,15.632 -0.289,-0.539 -0.601,-1.078 -0.851,-1.609 -2.727,-5.668 -3.137,-2.25 -2.942,0.215 0.258,3.148 1.457,6.09 2.629,9.312 -0.281,1.688 -0.586,3.352 -0.922,5.02 -1.09,-1.559 -2.672,-2.66 -5.144,-3.895 -1.614,-0.824 -3.137,-4.617 -3.735,-6.066 -0.703,-1.754 -4.711,0.41 -8.011,-1.18 -5.786,-2.789 -11.711,-3.211 -7.485,-9.203 2.707,-3.816 -6.476,-2.746 -8.41,-7.601 z m -8.176,-205.059 c -1.308,-3.148 -7.937,-8.816 -6.793,-10.676 13.379,8.512 25.891,18.254 37.364,29.102 l -35.036,35.023 c -2.445,-2.281 -4.964,-4.476 -7.527,-6.636 -0.605,-4.012 -0.055,-7.161 4.879,-8.684 5.316,-1.645 14.195,-7.051 12.324,-12.297 -2.097,-4.691 -7.289,-11.723 -9.797,-16.383 -2.129,-3.98 6.164,-5.676 4.586,-9.449 z m 37.633,30.926 2.715,-2.715 c 40.332,42.629 65.648,99.605 67.379,162.379 H 661.531 C 659.82,743.348 640.066,698.754 608.684,665.113 l 17.886,-17.886 c 0.129,0.25 0.246,0.496 0.368,0.746 1.48,3.136 0.843,7.234 1.089,10.109 0.153,1.883 6.977,1.43 7.465,-1.676 0.41,-2.617 1.762,-4.543 4.129,-11.039 1.707,-4.683 2.52,-8.988 1.375,-12.566 z m -31.457,300.926 c -0.066,-0.293 -0.219,-0.457 -0.402,-0.575 8.164,-8.812 15.508,-18.382 21.972,-28.57 0.758,0.961 1.356,1.816 2.403,0.617 1.75,-2 -1.828,-5.636 3.363,-4.683 3.125,0.574 2.488,-3.426 -0.043,-5.571 1.602,-2.886 3.145,-5.804 4.606,-8.769 1.828,-0.821 3.21,-1.817 3.492,-3.004 0.824,-3.484 2.422,-7.344 2.812,-11.195 2.477,-6.239 4.66,-12.629 6.512,-19.161 2.551,2.184 5.426,0.997 5.73,-2.648 0.301,-3.645 -0.855,-7.594 -2.445,-10.859 2.219,-10.715 3.602,-21.735 3.992,-33 h 49.559 c -0.899,32.082 -8.09,63.82 -20.969,92.984 -0.984,-0.789 -2.305,-0.852 -3.969,-2.961 -2.507,-3.168 -6.562,0.789 -8.789,3.559 -4.152,5.125 -13.929,19.539 -18.332,20.261 -3.676,0.61 -6.422,5.387 -10.293,6.176 -3.859,0.789 -8.683,2.965 -9.312,7.051 -0.66,4.184 -2.184,5.906 -6.477,6.574 -4.855,0.746 -8.238,2.672 -11.656,6.305 L 609.43,934.395 c 0.097,-0.258 0.152,-0.485 0.109,-0.668 z m 69.348,-358.391 -35.176,35.176 c -18.137,-17.203 -38.746,-31.824 -61.231,-43.285 -7.406,-5.59 -16.457,-9.657 -23.3,-12.762 -2.867,-1.297 -5.969,-2.996 -9.227,-2.996 -1.047,0 -1.957,0.347 -2.863,0.91 -23.848,-7.981 -49.203,-12.609 -75.535,-13.301 v -49.551 c 77.957,1.7 151.09,31.969 207.332,85.809 z m -183.543,43.461 c -1.621,1.75 -4.91,1.883 -7.235,1.254 -8.054,-2.184 -5.363,4.219 -16.554,2.586 v -6.305 c 8.078,0.301 16.015,1.156 23.789,2.465 z m -23.789,-16.309 v -49.566 c 20.07,0.558 39.554,3.531 58.175,8.637 -3.871,3.289 -5.632,8.621 -10.421,10.261 -8.243,2.836 -10.457,7.907 -6.004,15.258 2.414,3.973 1.461,5.539 -1.36,9.766 -3.441,5.148 -7.882,7.504 -11.105,8.902 -9.551,-1.785 -19.317,-2.91 -29.285,-3.258 z m -3.125,83.645 c 5.277,0.887 10.879,2.414 15.636,2.887 5.211,0.519 -0.214,-6.899 2.875,-7.2 3.7,-0.371 18.903,-2.965 19.973,0.485 0.875,2.836 1.082,4.109 4.348,4.812 6.152,1.344 11.031,1.149 16.242,5.125 1.883,1.442 5.766,1.957 6.879,4.09 1.113,2.129 -0.801,12.207 -4.555,10.563 -1.824,-0.809 -4.031,-3.415 -7.937,-5.383 -3.536,-1.774 -6.043,-2.586 -8.551,0.777 -2.293,3.063 1.34,5.461 3.223,7.516 2.906,3.191 5.546,6.425 8.781,6.425 1.254,0 7.933,3.317 7.375,6.356 -0.739,3.937 -8.5,-0.356 -10.309,1.266 -1.254,1.113 -0.019,3.949 -0.992,4.378 -0.91,0.422 -3.777,-3.492 -1.559,-5.613 1.149,-1.101 -1.859,-4.172 -5.234,-1.965 -2.594,1.719 -3.266,-7.746 -3.039,-9.472 0.227,-1.731 3.809,-1.254 1.43,-4.371 -2.391,-3.133 -3.278,-0.809 -5.039,-2.344 -2.122,-1.863 -2.598,-2.574 0,-5.27 2.074,-2.14 -1.223,-6.207 -1.993,-2.398 -0.507,2.527 -5.828,1.762 -6.832,4.629 -1.039,2.949 -5.367,2.66 -10.621,5.351 -3.98,2.043 -3.472,-3.992 3.278,-5.523 5.73,-1.313 5.437,-1.992 3.796,-5.582 -1.343,-2.942 -1.082,2.262 -7.894,4.066 -4.383,1.157 -4.586,3.492 -8.035,3.45 -3.492,-0.036 -2.348,-3.34 -6.035,-2.477 -2.789,0.66 -3.223,-3.106 -5.793,-4.195 -3.137,-1.34 -2.953,-7.02 -6.145,-8.586 -4.746,-2.325 -14.48,-0.575 -14.035,4.129 0.441,4.707 0.66,8.218 3.383,9.875 2.402,1.437 6.359,-2.782 9.691,-1.289 3.481,1.546 2.606,5.257 0.496,7.636 -0.629,0.809 -3.179,2.074 -3.125,2.875 0.055,0.985 5.016,1.449 7.528,3.137 2.519,1.687 5.222,6.184 6.507,7.191 1.375,1.071 4.067,1.34 4.317,2.336 0.344,1.266 -1.906,3.567 -1.688,5.114 0.215,1.546 0.754,2.738 1.957,2.652 1.2,-0.102 2.625,-3.559 1.86,-4.395 -0.875,-0.937 0.629,-2.527 2.261,-1.855 1.641,0.668 7.469,2.949 9.168,3.394 2.305,0.614 -0.574,5.829 0.176,6.758 0.699,0.875 1.383,-0.281 2.27,0.606 0.886,0.886 -1.817,1.761 -1.383,3.656 0.312,1.426 6.41,3.078 4.734,4.16 -1.675,1.094 -3.937,-2.062 -5.277,-2.656 -3.039,-1.344 -4.52,1.976 -4.422,4.496 0.055,1.223 1.707,5.547 0.258,6.391 -2.012,1.156 -2.348,-3.989 -2.66,-4.996 -0.485,-1.524 -1.781,-3.45 0.445,-7.602 1.199,-2.238 0.582,-9.82 -1.754,-10.652 -2.484,-0.899 -3.578,3.851 -4.746,5.808 -0.195,0.332 -0.398,0.582 -0.617,0.703 -0.02,0.008 -0.043,0.02 -0.067,0.032 -0.093,0.043 -0.191,0.066 -0.3,0.054 h -0.012 c -0.105,-0.011 -0.215,-0.078 -0.324,-0.164 -0.031,-0.019 -0.063,-0.054 -0.086,-0.074 -0.117,-0.109 -0.227,-0.238 -0.356,-0.434 -0.195,-0.3 -0.507,-0.832 -0.769,-1.285 -0.184,-0.324 -0.551,-1.093 -1.016,-2.422 -0.293,-0.843 -0.82,-1.351 -1.762,-1.558 -2.542,-0.281 -5.105,-0.453 -7.722,-0.453 -1.004,0 -2.012,0.019 -3.004,0.062 0.422,-1.555 0.863,-3.242 1.437,-4.336 1.372,-2.594 4,-4.691 3.559,-6.605 -0.445,-1.926 -8.469,-3.668 -9.129,-2.262 -0.82,1.754 2.024,5.266 1.797,6.856 -0.41,2.898 -1.871,4.628 -1.688,6.64 -14.156,1.418 -27.089,7.031 -37.511,15.606 l -35.106,-35.102 c 17.317,-15.422 39.094,-25.922 63.145,-29.25 3.394,2.074 4.789,5.785 7.472,3.773 4.27,-3.222 9.418,1.079 12.825,1.653 z m -10.715,-66.235 c -6.977,-0.515 -17.52,-0.343 -20.02,1.375 -5.199,3.602 -11.398,7.137 -12.097,9.926 -1.258,4.953 -8.035,8.672 -8.035,13.313 0,5.16 7.125,6.843 5.222,12.078 -1.523,4.164 2.531,9.375 9.949,13.012 -21.746,5.351 -41.418,16.011 -57.543,30.558 l -35.109,-35.113 c 32.266,-29.977 73.566,-47.063 117.633,-48.695 z m 0,-17.418 c -43.973,1.512 -85.375,17.364 -118.91,45.278 0.758,-0.922 1.418,-1.809 1.925,-2.664 2.282,-3.934 10.219,-11.938 5.168,-15.137 -4.195,-2.648 -11.148,-0.867 -15.043,-0.801 -4.292,0.055 -10.531,-6.359 -14.207,-6.996 -4.683,-0.801 -7.367,-0.445 -11.746,1.328 -1.078,0.446 -2.441,1.297 -3.988,2.391 l -5.578,-5.578 c 42.637,-40.324 99.613,-65.641 162.379,-67.379 z m 0,-63.402 c -66.582,1.742 -127.02,28.602 -172.168,71.434 l -35.176,-35.176 c 56.25,-53.84 129.387,-84.109 207.344,-85.809 z M 218.18,792.465 c 0.703,-25.703 5.371,-50.422 13.394,-73.598 0.293,0.02 0.563,0.031 0.856,0.043 5.031,0.238 11.754,0.074 14.922,2.52 4.878,3.761 0.367,17.226 3.429,22.84 3.774,6.941 13.203,23.41 16.035,23.519 2.512,0.098 2.403,-1.773 3.676,-2.078 -1.5,8.781 -2.441,17.703 -2.746,26.754 z m 67.367,176.223 C 245.223,926.047 219.906,869.07 218.18,806.309 h 49.558 c 1.707,49.101 21.465,93.699 52.848,127.339 z m 172.168,27.593 v 49.569 c -62.766,-1.74 -119.742,-27.05 -162.379,-67.389 l 35.035,-35.023 c 33.629,31.378 78.227,51.136 127.344,52.843 z m 0,-63.422 v 49.571 c -45.301,-1.688 -86.445,-19.899 -117.57,-48.782 l 35.046,-35.035 c 22.106,19.942 50.872,32.625 82.524,34.246 z M 410.336,780.355 c 0.012,0.301 0.035,0.614 0.066,0.93 0.012,0.086 0.012,0.172 0.024,0.246 0.019,0.239 0.051,0.477 0.074,0.715 0.02,0.098 0.031,0.207 0.043,0.305 0.023,0.148 0.043,0.301 0.066,0.453 0.02,0.086 0.032,0.16 0.043,0.25 0.008,0.086 0.032,0.184 0.043,0.269 0.055,0.325 0.118,0.637 0.196,0.942 0,0.008 0,0.008 0,0.019 0.062,0.293 0.136,0.582 0.226,0.856 0.02,0.098 0.055,0.172 0.074,0.258 0.067,0.195 0.122,0.379 0.196,0.562 0.031,0.086 0.066,0.176 0.097,0.262 0.075,0.172 0.141,0.332 0.227,0.484 0.031,0.067 0.066,0.141 0.098,0.207 0.117,0.203 0.238,0.399 0.367,0.563 0.453,0.574 1.058,0.679 1.773,0.582 1.235,-0.172 2.778,-0.973 4.281,-1.047 1.083,-0.055 2.141,0.258 3.063,1.449 0.422,0.539 0.809,1.156 1.09,1.762 0.293,0.605 0.476,1.199 0.488,1.687 0,0.239 -0.031,0.454 -0.117,0.637 -0.262,0.531 -0.977,0.703 -2.383,0.219 -0.289,-0.102 -0.57,-0.195 -0.863,-0.274 -0.582,-0.16 -1.156,-0.269 -1.707,-0.289 -0.281,-0.011 -0.543,0 -0.801,0.043 -0.781,0.106 -1.461,0.453 -1.98,1.157 -0.161,0.238 -0.313,0.507 -0.442,0.832 -0.164,0.41 -0.359,0.765 -0.586,1.082 -0.875,1.277 -2.164,1.914 -3.504,2.714 -0.668,0.399 -1.351,0.821 -2.011,1.395 -0.325,0.281 -0.649,0.594 -0.95,0.949 -0.25,0.281 -0.488,0.555 -0.734,0.813 -0.102,0.097 -0.195,0.183 -0.293,0.269 -0.164,0.164 -0.316,0.317 -0.488,0.465 -0.117,0.109 -0.246,0.219 -0.367,0.317 -0.141,0.117 -0.282,0.226 -0.422,0.332 -0.153,0.121 -0.293,0.218 -0.446,0.324 -0.117,0.078 -0.246,0.164 -0.375,0.238 -0.164,0.109 -0.324,0.207 -0.5,0.293 -0.105,0.055 -0.214,0.109 -0.324,0.16 -0.183,0.09 -0.379,0.176 -0.562,0.25 -0.086,0.031 -0.172,0.055 -0.258,0.09 -0.215,0.063 -0.434,0.137 -0.649,0.18 -0.043,0.011 -0.086,0.011 -0.129,0.023 -1.656,0.313 -3.386,-0.117 -5.062,-1.742 -0.023,-0.012 -0.043,-0.031 -0.066,-0.055 -0.258,-0.258 -0.528,-0.551 -0.789,-0.875 -0.032,-0.031 -0.055,-0.062 -0.086,-0.097 -0.258,-0.336 -0.52,-0.68 -0.778,-1.082 -0.011,-0.032 -0.031,-0.063 -0.066,-0.094 -0.258,-0.414 -0.52,-0.856 -0.778,-1.332 -0.539,-0.996 -1.058,-2.11 -1.558,-3.426 -4.024,-10.535 -8.684,-7.312 -7.914,-11.066 0.086,-0.442 1.222,-0.746 2.863,-0.875 0.66,-0.051 1.406,-0.086 2.188,-0.086 0.789,0 1.632,0.019 2.476,0.078 0.852,0.043 1.719,0.117 2.563,0.226 0.422,0.051 0.832,0.118 1.23,0.184 0.25,0.031 0.477,0.074 0.715,0.117 0.227,0.043 0.453,0.086 0.68,0.141 0.195,0.043 0.402,0.086 0.597,0.129 0.258,0.066 0.496,0.14 0.735,0.207 0.148,0.043 0.3,0.086 0.433,0.129 0.375,0.121 0.723,0.25 1.028,0.39 0.539,0.246 1.089,0.465 1.632,0.649 0.02,0 0.032,0 0.051,0.011 0.52,0.172 1.039,0.301 1.539,0.387 1.047,0.195 2.008,0.184 2.766,-0.086 0.551,-0.195 1.687,-0.672 2.5,-1.847 0.672,-0.965 1.309,-2.629 1.457,-3.958 z m -35.121,-60.613 35.09,35.102 c -2.864,3.48 -5.375,7.258 -7.535,11.246 0,0 -0.012,-0.012 -0.012,-0.02 -0.551,-0.64 -1.016,-1.289 -1.297,-1.902 -0.727,-1.57 0.215,-6.793 -1.957,-9.031 -2.805,-2.899 -10.328,6.379 -12.707,7.148 -3.234,1.016 -4.781,-2.543 -4.606,-3.57 0.43,-2.668 -0.109,-3.742 -1.277,-3.981 -1.168,-0.226 -7.051,3.778 -4.422,4.782 3.059,1.156 -0.801,3.797 -2.121,4.824 -2.269,1.75 -5.816,0.117 -7.484,2.441 -1.782,2.5 -5.145,4.293 -6.184,4.598 -0.703,0.207 -4.152,1.664 -6.414,0.476 -1.773,-0.953 -3.687,0.985 -5.016,2.282 -0.738,0.711 -1.472,1.547 -2.25,2.355 4.184,-21.519 14.145,-40.992 28.192,-56.75 z m -50.512,98.567 c -3.883,0.402 -7.816,-1.211 -9.906,-4.582 -1.457,-2.336 -1.867,-4.954 -1.371,-7.418 h 17.722 c 0.172,3.351 0.477,6.671 0.887,9.949 -2.281,1.187 -4.996,1.812 -7.332,2.051 z m 34.387,37.73 c 0.476,0.207 0.953,0.434 1.449,0.715 6.016,3.437 13.918,2.777 17.281,1.316 4.336,-1.89 9.883,-6.715 12.403,-8.636 1.093,-0.832 1.613,0.711 6.718,1.48 2.129,0.313 2.618,-1.828 5.653,-2.262 1.222,-0.172 2.226,-0.226 3.148,-0.16 l -30.539,30.528 c -6.219,-6.977 -11.633,-14.7 -16.113,-22.981 z m 6.316,32.789 -35.035,35.035 C 301.488,892.742 283.277,851.594 281.59,806.309 h 24.547 c 4.109,6.617 2.715,11.656 4.086,15.504 1.32,3.667 3.484,7.031 5.515,10.328 1.809,2.91 3.864,6.183 7.649,6.207 8,0.043 9.988,4.226 15.062,6.554 5.071,2.325 14.047,3.7 13.031,6.348 -0.695,1.781 -18.73,-5.215 -19.121,-3.852 -0.679,2.391 5.688,2.165 8.371,4.586 0.532,0.496 1.047,0.801 1.547,1.047 5.793,13.172 13.614,25.25 23.129,35.797 z M 280.27,636.648 c -0.153,-0.085 -0.325,-0.148 -0.497,-0.214 1.891,-2.153 3.817,-4.27 5.786,-6.348 l 3.968,3.969 c -3.722,2.347 -7.148,3.828 -9.257,2.593 z m 13.062,133.864 c -2.887,3.308 1.914,12.718 2.629,14.566 0.769,1.957 5.125,4.477 6.434,7.387 h -20.817 c 0.399,-10.891 1.774,-21.594 4.024,-32.063 4.996,-1.828 14.597,2.25 7.73,10.11 z m 29.211,-83.578 c 0.008,-0.985 -0.035,-1.957 -0.238,-2.875 2.574,-3.161 5.199,-6.262 7.968,-9.246 l 35.133,35.132 c -16.535,18.328 -28.062,41.243 -32.453,66.582 -1.047,-0.285 -1.988,-0.14 -2.57,0.875 -0.715,1.231 0.32,2.489 1.836,3.743 -0.508,3.73 -0.875,7.503 -1.071,11.32 h -23.39 c 0.238,-3.719 1.73,-9.082 -0.723,-10.953 -2.023,-1.535 -4.89,0.019 -6.719,-0.227 -4.484,-0.605 -5.511,-6.023 -4.324,-9.699 0.781,-2.481 1.86,-4.395 1.43,-7.063 -0.402,-2.507 -1.766,-4.464 2.203,-6.562 3.637,-1.906 9.52,-9.367 9.031,-10.652 -0.629,-1.657 -4.238,1.543 -4.465,-1.45 -0.14,-1.839 5.332,0.52 5.016,-5.711 -0.184,-3.621 0.727,-7.589 1.773,-10.078 2.165,-5.179 4.653,-8.597 4.434,-14.437 -0.172,-4.844 -1.027,-10.121 1.094,-14.684 2.183,-4.695 6.012,-8.488 6.035,-14.015 z m 122.441,185.218 c 0.348,-0.531 -3.242,-3.797 -5.082,-6.964 5.731,2.152 11.692,3.535 17.813,4.128 v 49.68 c -27.836,-1.601 -53.152,-12.738 -72.727,-30.191 l 35.071,-35.071 c 4.035,3.313 8.414,6.176 13.129,8.543 1.222,0.606 2.453,1.168 3.699,1.7 2.398,4.195 7.644,8.867 8.097,8.175 z m -204.39,-287.027 35.176,35.176 c -6.918,7.297 -13.418,15 -19.461,23.043 -2.727,1.082 -5.496,2.594 -7.399,4.953 -3.008,3.754 -4.586,9.246 -6.012,9.246 -1.437,-0.012 -0.121,-3.492 -3.32,-3.957 -4.359,-0.641 -10.512,10.195 -12.914,14.144 -2.832,4.649 -7.48,4.692 -9.762,9.051 -0.66,1.254 -2.238,5.102 -3.699,2.821 -2.41,-3.872 -10.683,8.433 -12.793,7.589 -2.172,-0.839 -0.258,-3.406 -1.48,-4.484 -2.367,-2.109 -9.332,9.43 -11.938,8.25 -2.445,-1.113 -3.008,-2.598 -3.148,-5.656 -0.129,-3.18 3.804,-11.356 2.422,-11.992 -1.965,-0.899 -12.036,24.742 -9.84,25.91 1.23,0.66 1.039,-1.168 2.433,-0.336 1.438,0.867 -1.007,2.64 -1.664,5.418 -0.691,2.91 -3.215,2.972 -3.429,6.176 -0.196,3.191 4.355,2.117 4.304,3.675 -0.054,1.559 0.356,3.332 1.645,4.446 1.5,1.297 5.015,-0.067 5.773,4.433 0.649,3.836 2.582,0.282 2.985,-2.574 0.465,-3.309 8.922,-4.141 9.332,-1.871 0.25,1.437 -3.418,1.383 -3.418,2.66 -0.008,2.445 4.648,0.109 7.832,-0.172 1.383,-0.121 3.879,2.117 7.039,0.485 3.437,-1.786 5.558,-2.649 7.84,-3.016 -7.657,23.367 -12.102,48.184 -12.774,73.922 h -49.547 c 1.696,-77.957 31.965,-151.09 85.817,-207.34 z m -99.735,214.262 c 0,86.551 33.664,167.871 94.782,228.993 61.109,61.12 142.441,94.78 228.992,94.78 86.555,0 167.875,-33.66 228.992,-94.78 61.117,-61.122 94.781,-142.442 94.781,-228.993 0,-86.555 -33.664,-167.883 -94.781,-228.992 -61.117,-61.122 -142.437,-94.782 -228.992,-94.782 -86.551,0 -167.883,33.66 -228.992,94.782 -61.118,61.109 -94.782,142.437 -94.782,228.992 z M 323.082,761.57 c 0.356,0.758 2.691,11.453 2.336,15.539 -0.367,4.079 -2.539,7.926 -3.094,7.645 -0.734,-0.379 0.336,-2.82 0.465,-6.777 0.195,-5.918 -2.594,-10.836 -2.594,-12.786 -0.011,-1.836 1.75,-6 2.887,-3.621 z m 1.645,-15.593 c 0.203,2.195 0.019,8.617 -1.516,9.863 -1.535,1.23 -1.328,-1.094 -2.434,-0.961 -0.851,0.094 -0.777,3.082 -1.859,3.07 -1.082,0 0.367,-5.105 1.523,-8.066 1.161,-2.977 4.012,-7.832 4.286,-3.906 z m 68.246,-0.508 c 1.437,0 2.472,5.105 1.586,7.613 -0.895,2.508 -5.524,0.629 -5.934,-0.539 -0.402,-1.18 2.898,-7.074 4.348,-7.074 z m 52.066,56.133 c -4.672,1.203 -3.719,-1.457 -6.586,-1.774 -4.746,-0.519 -0.527,3.504 -2.863,5.356 -1.031,0.808 -3.82,-3.258 -4.024,-5.797 -0.132,-1.223 -0.164,-5.364 1.848,-5.496 2.012,-0.129 12.586,-1.34 16.113,-2.137 4.032,-0.934 -0.164,8.734 -4.488,9.848 z m -9.754,6.23 c 2.324,0 2.238,1.738 3.59,1.676 1.363,-0.055 0.25,-1.762 2.605,-1.762 2.336,0 4.793,6.024 -2.722,6.024 -6.121,0 -5.313,-5.852 -3.473,-5.938 z m 10.856,-56.059 c -0.368,1.395 -2.813,1.168 -2.203,-0.121 0.605,-1.285 -0.739,-2.593 0.515,-4.207 1.645,-1.761 5.192,-1.543 6.977,-0.086 1.027,1.118 0.379,3.223 -0.399,3.633 -1.351,0.672 -4.523,-0.613 -4.89,0.781 z m 82.457,327.897 c -7.485,3.42 -35.664,3.26 -34.93,-4.07 0.605,-6.26 16.273,-0.38 20.328,-0.03 4.067,0.36 21.207,0.7 14.602,4.1 z m -33.785,-17 c -5.555,3.59 -0.907,8.54 -5.352,11.87 -3.113,2.34 -11.84,0.02 -14.004,-2.74 -3.75,-4.86 4.848,-3.25 7.961,-4.63 3.48,-1.54 10.953,-7.96 12.281,-6.67 1.321,1.31 -0.269,1.59 -0.886,2.17 z m 127.527,-36.63 c 2.769,-1.05 2.758,4.12 -1.945,7.94 -4.672,3.81 -10.903,1.96 -9.215,0.07 1.527,-1.68 8.707,-7.07 11.16,-8.01 z m 29.621,-144.501 c -0.078,-1.559 4.422,-12.394 4.875,-15.348 0.457,-2.949 1.387,-11.796 3.766,-10.886 1.5,0.582 1.363,6 1.035,8.097 -0.961,6.153 -2.203,11.473 -4.477,18.383 -1.199,3.68 -6.41,15.68 -8.14,15.262 -1.536,-0.371 2.582,-8.738 3.191,-11.465 0.398,-1.773 -0.164,-2.477 -0.25,-4.043 z m -56.051,0.465 c -2.562,-0.066 -3.211,-2.856 -0.742,-4.121 1.102,-0.574 4.613,-0.055 6.227,0.961 1.699,1.074 3.675,2.402 3.308,4.996 -0.215,1.582 -3.89,6.035 -1.969,7.746 2.079,1.859 4.176,-1.027 6.207,-0.238 2.477,0.961 2.25,2.379 2.329,4.488 0.093,2.918 -1.075,6.758 -4.457,6.758 -2.52,0 -6.899,-6.75 -7.094,-7.16 -0.336,-0.735 -1.039,-3.2 0.043,-5.711 1.504,-3.493 0.918,-7.59 -3.852,-7.719 z m 41.356,-107.707 c -2.973,-0.129 -6.2,-4.434 -5.289,-4.488 2.14,-0.106 3.773,-1.641 5.492,-1.262 3.16,0.703 2.769,5.871 -0.203,5.75 z m -114.11,100.027 c 1.43,-0.746 7.711,2.672 6.543,3.594 -1.156,0.926 -8.543,4.344 -8.691,2.258 -0.219,-3.395 0.711,-5.106 2.148,-5.852 z m -2.031,-2.043 c -2.305,1.199 -11.777,-10.347 -10.262,-12.218 0.68,-0.747 11.094,11.667 10.262,12.218 z M 456.34,722.488 c 2.379,3.582 -3.559,5.84 -5.106,-0.379 -1.449,-5.785 2.715,-3.187 5.106,0.379 z M 114.008,987.004 c 0,0 0.305,-0.109 0.488,-0.031 0.074,0.031 0.16,0.129 0.25,0.195 5.762,4.465 28.793,22.372 36.723,30.362 11.98,10.39 20.695,23.5 29.511,36.43 9.18,13.49 19.008,26.37 31.25,37.25 1.004,0.89 1.75,1.5 2.766,2.41 0.121,-0.03 0.371,1.01 0.152,1.42 -21.062,-5.81 -42.757,-14.47 -59.085,-28.59 -30.387,-24.02 -40.801,-72.567 -42.012,-79.184 -0.012,-0.098 -0.043,-0.262 -0.043,-0.262 z M 70.2344,906.379 c 0,-5.625 -0.1055,-10.383 -0.3906,-13.379 0,-0.02 0.0234,-0.012 0.0234,-0.02 -0.0117,-0.078 -0.0117,-0.175 -0.0234,-0.25 -0.0313,-0.324 0.8984,0.258 0.8984,0.258 0,0 0.1406,0.153 0.2187,0.239 4.8008,6.109 19.7032,24.582 40.1481,41.687 11.465,9.484 23.532,18.59 34.27,28.84 14.926,14.266 23.641,38.336 26.223,51.346 0.183,1.15 0.39,2.04 0.347,2.5 -0.281,0.1 -1.199,-0.22 -1.332,-0.38 -1.523,-1.99 -3.07,-3.97 -4.562,-5.99 -8.696,-11.781 -17.832,-18.906 -29.825,-26.777 -20.187,-12.738 -34.355,-22.394 -45.773,-37.871 -0.0859,-0.117 -0.1836,-0.238 -0.2695,-0.367 -0.5195,-0.942 -1.5469,-0.488 -1.2344,0.5 3.4727,11.234 4.9532,18.238 7.3633,28.137 3.9496,16.293 5.7426,37.838 11.8556,52.168 3.859,9.08 9.383,16.82 16.476,23.75 0.079,0.06 0.141,0.11 0.176,0.2 0.289,0.85 0.141,1.52 0.098,1.5 -1.063,-0.25 -2.715,-0.88 -3.949,-1.49 -21.141,-10.52 -35.2738,-27.53 -44.7816,-48.92 -5.8476,-13.197 -7.4062,-26.951 -7.4375,-40.869 -0.0117,-4.671 0.1406,-9.351 0.3555,-14.015 0.5508,-11.535 1.1133,-28.278 1.125,-40.797 z M 38.293,822.863 c 5.3828,-15.41 12.6054,-38.215 14.1758,-44.097 0.0429,-0.184 1.039,0.246 1.1562,0.711 4.3164,16.449 22.2109,48.5 33.4023,63.543 0.8008,1.082 1.6133,2.14 2.4141,3.21 11.1486,14.731 23.0426,29.067 30.4496,46.176 5.125,11.852 13.062,37.297 13.574,39.696 0.008,0.086 -0.293,0.109 -0.66,0.054 -0.176,0.078 -0.813,0.043 -1.309,-0.269 -0.121,-0.067 -0.238,-0.164 -0.348,-0.27 -0.066,-0.054 -0.128,-0.129 -0.183,-0.226 C 122.996,919.125 109.383,905.059 100.23,897.152 85.4922,885.129 74,875.969 65.1094,858.32 c -0.9531,-1.882 -2.086,-4.488 -3.211,-7.234 -2.7031,-6.359 -5.3984,-13.938 -5.4296,-14.09 -0.0977,-0.484 -0.9415,-1.199 -1.2422,-0.269 -0.25,0.789 1.4804,21.593 1.6328,24.418 0.8437,16.902 -2.3906,33.488 -4.6524,50.25 -2.832,21.023 -4.7656,38.464 0.9961,63.195 0.3907,1.676 0.8633,3.351 1.3516,5.008 0.3672,1.265 0.6601,2.238 1.0703,3.504 0.0664,0.214 -0.25,1.199 -0.6172,1.328 C 32.8633,957.527 20.3516,908.293 25.7695,870.348 27.6836,856.969 37.1758,826.055 38.293,822.863 Z M 74.4297,663.48 c 0.0234,0.032 0.0664,-0.042 0.0976,-0.035 0.8008,0.598 0.7344,0.801 0.4883,2.715 -2.3242,22.981 1.4492,41.621 8.9961,63.367 11.2774,32.489 22.1793,65.996 25.7263,100.211 0.477,4.567 0.918,11.606 0.789,13.746 -0.293,0.129 -1.254,-0.476 -1.297,-0.593 C 104.352,830.68 92.9219,812.523 86.3242,802.156 73.6719,782.258 59.2383,762.457 57.5078,738.547 c -0.4453,-6.078 -0.3906,-14.059 0.4219,-20.524 0.0117,-0.14 -0.2383,-0.765 -0.7578,-0.617 -0.086,0.032 -0.3477,0.164 -0.4219,0.465 -1.5234,5.82 -3.2773,12.793 -5.5039,20.309 -11.6367,39.461 -39.5352,64.222 -39.3828,121.906 -0.0781,0.258 -0.7461,1.254 -1.1367,1.262 -0.6172,-0.907 -2.41019,-5.09 -3.9141,-9.926 -24.8711,-80.184 25.6172,-137.734 35.6328,-149.934 9.2539,-11.265 24.2735,-26.883 31.9844,-38.008 z m 8.7812,-74.984 c 16.7188,-11.16 42.0781,-26.113 50.9771,-31.793 0.042,-0.031 0.14,-0.055 0.14,-0.055 0,0 0.617,1.082 0.391,1.668 -0.043,0.118 -0.078,0.247 -0.133,0.356 -11.094,21.953 -12.746,45.894 -14.695,70.094 -1.676,20.949 2.164,47.117 1.082,67.468 -0.899,16.868 -6.25,35.036 -10.524,49.536 -0.594,1.937 -0.832,2.293 -0.844,2.371 -0.367,-0.036 -0.917,-0.789 -1.046,-1.114 -0.043,-0.121 -0.012,-0.14 -0.032,-0.261 -2.207,-24.957 -11.1481,-47.211 -14.3825,-67.606 -3.7968,-23.91 -1.0937,-54.762 5.2461,-72.203 0.3672,-1.019 -0.6289,-1.266 -0.9843,-0.703 -13.1641,20.035 -41.6563,48.93 -56.461,64.211 -18.8789,19.875 -31.8242,38.355 -38.98436,61.183 -0.05078,0.165 -1.02344,0.856 -1.25391,0.758 -0.1289,-0.238 -0.20312,-2.14 -0.22656,-3.222 C 0.949219,697.238 11.418,665.879 29.4453,639.84 43.8828,619.004 62.3398,602.434 83.2109,588.496 Z M 220.762,478.023 c 1.375,-0.293 2.769,-0.496 4.898,-0.867 0.043,-0.008 0.121,0.098 0.121,0.164 -0.066,0.532 -0.25,0.875 -0.25,0.875 0,0 -1.125,1.18 -1.351,1.407 -14.891,14.75 -24.063,32.918 -31.102,52.285 -5.18,14.273 -9.969,28.687 -14.965,43.027 -7.074,20.254 -22.234,52.641 -40.445,73.481 -0.031,0.043 -0.195,0.152 -0.227,0.109 -0.203,-0.285 -0.55,-0.899 -0.378,-1.461 6.089,-18.102 6.457,-38.379 9.05,-57.152 7.453,-53.789 32.239,-79.168 33.059,-80.118 0.648,-0.757 0.055,-1.492 -0.527,-1.058 -1.094,0.808 -2.012,1.48 -3.106,2.387 -16.848,13.953 -33.91,22.351 -53.723,31.554 -15.875,7.364 -29.2926,13.778 -43.7418,23.848 -29.7695,20.383 -41.914,36.289 -42.5937,37.152 -0.4453,0.336 -1.1133,0.367 -1.5352,0.207 2.0117,-7.343 5.0391,-13.906 8.2735,-20.609 12.4453,-25.793 31.5195,-45.938 54.0546,-63.25 22.4726,-17.25 46.8356,-27.156 74.7226,-31.805 16.688,-2.777 33.18,-6.758 49.766,-10.176 z M 239.707,428 c 20.145,1.414 39.633,5.785 59.074,10.996 12.645,3.375 37.289,8.727 45.821,10.676 0.14,0.031 0.355,0.086 0.496,0.117 0.078,0.012 0.109,0.063 0.086,0.141 -0.063,0.183 -0.227,0.574 -0.551,0.996 -0.117,0.14 -0.617,0.324 -0.875,0.387 -10.988,2.843 -41.352,11.71 -62.473,31.878 -13.515,12.555 -26.23,25.965 -39.738,38.52 -10.891,10.109 -34.875,30.527 -36.527,31.078 -0.231,-0.195 -0.317,-1.144 -0.243,-1.242 3.516,-4.695 16.157,-33.406 23.879,-48.102 11.149,-21.215 25.953,-38.117 47.742,-46.097 0.122,-0.043 0.282,-0.164 0.368,-0.25 0.5,-0.528 -0.203,-1.176 -1.743,-0.93 -0.128,0.023 -0.257,0.043 -0.386,0.066 -24.442,3.969 -48.371,5.039 -73.168,6.336 -18.758,0.985 -38.117,2.227 -56.078,8.391 -11.95,4.102 -21.227,7.766 -35.633,18.828 -0.141,0.086 -0.949,0.324 -1.653,-0.043 -0.042,-0.023 0,-0.129 0.043,-0.195 16.231,-24.332 44.661,-44.641 67.727,-53.235 20.285,-7.558 42.012,-9.851 63.832,-8.316 z m 477.188,663.21 c 12.242,-10.88 22.062,-23.76 31.253,-37.25 8.813,-12.93 17.528,-26.05 29.512,-36.43 7.914,-7.99 30.957,-25.897 36.723,-30.362 0.086,-0.078 0.172,-0.164 0.25,-0.195 0.183,-0.078 0.484,0.031 0.484,0.031 0,0 -0.031,0.164 -0.043,0.262 -1.211,6.617 -11.625,55.164 -42.011,79.184 -16.329,14.12 -38.02,22.78 -59.086,28.59 -0.215,-0.41 0.023,-1.45 0.152,-1.43 1.016,-0.89 1.75,-1.51 2.766,-2.4 z m 87.57,-40.44 c 7.105,-6.93 12.633,-14.67 16.492,-23.75 6.109,-14.33 7.902,-35.875 11.852,-52.168 2.41,-9.899 3.89,-16.903 7.363,-28.137 0.312,-0.988 -0.711,-1.442 -1.231,-0.5 -0.086,0.129 -0.175,0.25 -0.269,0.367 -11.422,15.477 -25.586,25.133 -45.777,37.871 -11.993,7.871 -21.129,14.996 -29.813,26.777 -1.504,2.02 -3.051,4 -4.574,5.99 -0.129,0.16 -1.051,0.48 -1.328,0.38 -0.043,-0.46 0.16,-1.35 0.343,-2.5 2.586,-13.01 11.301,-37.08 26.223,-51.346 10.738,-10.25 22.809,-19.356 34.27,-28.84 20.437,-17.105 35.351,-35.578 40.152,-41.687 0.074,-0.086 0.215,-0.239 0.215,-0.239 0,0 0.922,-0.582 0.898,-0.258 -0.011,0.075 -0.011,0.172 -0.023,0.25 0,0.008 0.023,0.008 0.023,0.02 -0.281,2.996 -0.39,7.754 -0.39,13.379 0.011,12.519 0.574,29.269 1.125,40.797 0.214,4.664 0.379,9.344 0.355,14.015 -0.031,13.918 -1.59,27.672 -7.437,40.869 -9.504,21.39 -23.637,38.4 -44.782,48.92 -1.242,0.61 -2.886,1.24 -3.945,1.5 -0.043,0.01 -0.195,-0.66 0.106,-1.51 0.023,-0.09 0.089,-0.14 0.152,-0.2 z m 24.43,-153.618 c -9.149,7.907 -22.762,21.973 -30.735,34.239 -0.055,0.097 -0.117,0.16 -0.183,0.226 -0.106,0.106 -0.227,0.203 -0.344,0.27 -0.5,0.312 -1.137,0.347 -1.309,0.258 -0.367,0.066 -0.672,0.043 -0.648,-0.043 0.496,-2.399 8.433,-27.844 13.558,-39.696 7.407,-17.109 19.301,-31.445 30.454,-46.176 0.796,-1.07 1.609,-2.128 2.41,-3.21 11.191,-15.043 29.09,-47.094 33.406,-63.543 0.117,-0.465 1.109,-0.895 1.152,-0.704 1.571,5.875 8.805,28.68 14.168,44.079 1.125,3.203 10.621,34.117 12.535,47.496 5.414,37.945 -7.093,87.179 -29.242,114.082 -0.367,-0.129 -0.679,-1.114 -0.617,-1.328 0.41,-1.266 0.703,-2.239 1.07,-3.504 0.489,-1.657 0.953,-3.321 1.34,-5.02 5.778,-24.719 3.84,-42.16 1.008,-63.183 -2.262,-16.762 -5.504,-33.348 -4.641,-50.25 0.145,-2.825 1.871,-23.629 1.614,-24.418 -0.293,-0.93 -1.137,-0.215 -1.235,0.269 -0.031,0.152 -2.722,7.731 -5.426,14.078 -1.125,2.758 -2.261,5.364 -3.214,7.246 -8.887,17.649 -20.383,26.809 -35.121,38.832 z m 43.48,-179.281 c -0.074,-0.301 -0.332,-0.433 -0.422,-0.465 -0.515,-0.148 -0.765,0.477 -0.754,0.617 0.809,6.465 0.864,14.446 0.418,20.524 -1.738,23.91 -16.164,43.711 -28.816,63.609 -6.598,10.379 -18.028,28.524 -22.903,40.746 -0.043,0.106 -1.007,0.711 -1.296,0.582 -0.133,-2.14 0.312,-9.179 0.789,-13.734 3.547,-34.227 14.445,-67.734 25.722,-100.223 7.551,-21.746 11.325,-40.375 9,-63.367 -0.25,-1.914 -0.316,-2.117 0.485,-2.703 0.035,-0.019 0.078,0.055 0.097,0.023 7.711,11.125 22.731,26.743 31.977,38.008 10.023,12.2 60.512,69.75 35.641,149.934 -1.5,4.836 -3.297,9.019 -3.915,9.926 -0.386,-0.008 -1.058,-1.004 -1.132,-1.262 0.152,-57.684 -27.75,-82.445 -39.395,-121.906 -2.219,-7.516 -3.969,-14.489 -5.496,-20.309 z m 53.789,13.777 c -7.16,-22.828 -20.101,-41.308 -38.984,-61.183 -14.805,-15.281 -43.297,-44.176 -56.457,-64.211 -0.368,-0.563 -1.352,-0.316 -0.985,0.703 6.336,17.441 9.039,48.293 5.242,72.203 -3.242,20.395 -12.175,42.649 -14.378,67.606 -0.024,0.121 0.007,0.14 -0.036,0.261 -0.128,0.325 -0.679,1.078 -1.046,1.114 -0.012,-0.078 -0.25,-0.434 -0.844,-2.371 -4.281,-14.5 -9.633,-32.668 -10.524,-49.536 -1.082,-20.351 2.758,-46.519 1.082,-67.468 -1.945,-24.2 -3.601,-48.141 -14.695,-70.094 -0.055,-0.109 -0.086,-0.238 -0.129,-0.356 -0.226,-0.586 0.391,-1.668 0.391,-1.668 0,0 0.094,0.024 0.137,0.055 8.902,5.68 34.257,20.633 50.976,31.793 20.871,13.938 39.328,30.508 53.766,51.344 18.027,26.039 28.496,57.398 27.965,89.344 -0.02,1.082 -0.098,2.984 -0.215,3.222 -0.239,0.098 -1.211,-0.593 -1.266,-0.758 z M 893.637,603.656 c -0.672,-0.863 -12.817,-16.769 -42.586,-37.152 -14.446,-10.07 -27.867,-16.484 -43.742,-23.848 -19.809,-9.203 -36.875,-17.601 -53.723,-31.554 -1.09,-0.899 -2,-1.579 -3.102,-2.387 -0.593,-0.434 -1.179,0.301 -0.531,1.058 0.824,0.95 25.61,26.329 33.059,80.118 2.593,18.773 2.961,39.05 9.051,57.14 0.171,0.574 -0.172,1.188 -0.379,1.473 -0.032,0.043 -0.196,-0.066 -0.227,-0.109 -18.211,-20.829 -33.371,-53.227 -40.441,-73.481 -5.008,-14.34 -9.789,-28.754 -14.969,-43.027 -7.027,-19.367 -16.211,-37.547 -31.109,-52.285 -0.219,-0.227 -1.344,-1.407 -1.344,-1.407 0,0 -0.184,-0.343 -0.246,-0.886 0,-0.055 0.074,-0.161 0.117,-0.153 2.133,0.371 3.527,0.574 4.898,0.867 16.59,3.43 33.082,7.399 49.766,10.176 27.891,4.649 52.254,14.555 74.723,31.805 22.535,17.301 41.613,37.457 54.058,63.25 3.235,6.703 6.274,13.266 8.274,20.609 -0.422,0.16 -1.094,0.129 -1.547,-0.207 z m -74.27,-113.867 c -14.402,-11.062 -23.683,-14.726 -35.633,-18.828 -17.961,-6.164 -37.316,-7.406 -56.078,-8.391 -24.797,-1.297 -48.726,-2.367 -73.168,-6.336 -0.129,-0.023 -0.258,-0.043 -0.386,-0.066 -1.536,-0.246 -2.239,0.402 -1.743,0.93 0.086,0.086 0.25,0.207 0.368,0.25 21.789,7.98 36.593,24.882 47.742,46.097 7.722,14.696 20.363,43.407 23.879,48.102 0.074,0.098 -0.012,1.047 -0.239,1.23 -1.656,-0.539 -25.64,-20.957 -36.527,-31.066 -13.508,-12.555 -26.227,-25.965 -39.742,-38.52 -21.117,-20.168 -51.485,-29.023 -62.481,-31.878 -0.25,-0.063 -0.746,-0.247 -0.867,-0.387 -0.324,-0.422 -0.484,-0.813 -0.551,-0.996 -0.019,-0.078 0.012,-0.129 0.086,-0.141 0.141,-0.031 0.36,-0.086 0.496,-0.117 8.536,-1.949 33.18,-7.301 45.821,-10.676 19.441,-5.211 38.929,-9.582 59.074,-10.996 21.824,-1.535 43.547,0.758 63.836,8.316 23.062,8.594 51.492,28.903 67.726,53.235 0.043,0.066 0.086,0.172 0.043,0.195 -0.703,0.367 -1.527,0.129 -1.656,0.043 z m -79.461,-72.141 c 0.434,0.098 1.028,-0.375 1.246,-0.625 -16.925,-17.343 -38.629,-29.23 -59.453,-35.156 -15.453,-4.39 -31.015,-5.125 -46.945,-3.34 -24.5,2.746 -46.117,12.567 -66.406,25.899 -12.145,7.98 -24.157,16.156 -36.172,24.332 -13.797,9.394 -29.024,11.113 -45.051,8.496 -8.684,-0.938 -2.098,-5.113 -0.766,-5.774 21.528,-10.542 41.793,-23.171 60.731,-37.781 12.867,-9.441 35.824,-31.578 35.824,-31.578 l -17.172,-14.707 c 0,0 -13.105,14.688 -18.816,20.395 -37.676,39.246 -71.035,56.492 -78.434,60.754 -1.297,0.746 -2.539,1.457 -3.859,1.457 -1.32,0 -2.563,-0.711 -3.86,-1.457 -7.398,-4.262 -40.757,-21.508 -78.445,-60.754 -5.695,-5.707 -18.805,-20.395 -18.805,-20.395 l -17.179,14.707 c 0,0 22.965,22.137 35.836,31.578 18.933,14.61 39.199,27.239 60.726,37.781 1.332,0.661 7.918,4.836 -0.765,5.774 -16.028,2.617 -31.25,0.898 -45.051,-8.496 -12.012,-8.176 -24.039,-16.352 -36.184,-24.332 -20.273,-13.332 -41.89,-23.153 -66.406,-25.899 -15.914,-1.785 -31.477,-1.05 -46.93,3.34 -20.828,5.926 -42.586,17.887 -59.507,35.231 0.214,0.25 0.863,0.648 1.296,0.55 1.438,-0.636 2.325,-1.089 3.719,-1.816 25.152,-12.941 51.656,-14.445 78.899,-9.199 18.597,3.578 35.878,11.027 53.191,18.426 12.402,5.285 24.656,11.117 37.426,15.332 33.101,10.922 66.644,10.793 100.332,2.261 0.551,-0.152 1.125,-0.226 1.707,-0.304 0.574,0.078 1.16,0.152 1.711,0.304 33.683,8.532 67.226,8.661 100.328,-2.261 12.769,-4.215 25.023,-10.047 37.426,-15.332 17.3,-7.399 34.593,-14.848 53.195,-18.426 27.238,-5.246 53.742,-3.742 78.895,9.199 1.394,0.727 2.281,1.18 3.718,1.816" style="fill:#399fdf;fill-opacity:1;fill-rule:nonzero;stroke:none" id="path54"/></g></g></svg>